<svg width="92" height="68" viewBox="0 0 92 68" fill="none" xmlns="http://www.w3.org/2000/svg">
<mask id="path-1-inside-1" fill="white">
<path fill-rule="evenodd" clip-rule="evenodd" d="M92 3C92 1.34315 90.6569 0 89 0H3C1.34315 0 0 1.34314 0 3V60.26C0 61.9168 1.34315 63.26 3 63.26H39.6692C40.6652 63.26 41.5963 63.7543 42.1543 64.5794L43.5149 66.5912C44.7046 68.3504 47.2953 68.3504 48.485 66.5912L49.8456 64.5794C50.4035 63.7543 51.3346 63.26 52.3306 63.26H89C90.6569 63.26 92 61.9168 92 60.26V3Z"/>
</mask>
<path fill-rule="evenodd" clip-rule="evenodd" d="M92 3C92 1.34315 90.6569 0 89 0H3C1.34315 0 0 1.34314 0 3V60.26C0 61.9168 1.34315 63.26 3 63.26H39.6692C40.6652 63.26 41.5963 63.7543 42.1543 64.5794L43.5149 66.5912C44.7046 68.3504 47.2953 68.3504 48.485 66.5912L49.8456 64.5794C50.4035 63.7543 51.3346 63.26 52.3306 63.26H89C90.6569 63.26 92 61.9168 92 60.26V3Z" fill="white"/>
<path d="M49.8456 64.5794L49.0172 64.0192L49.8456 64.5794ZM43.5149 66.5912L44.3432 66.031L43.5149 66.5912ZM48.485 66.5912L49.3133 67.1514L48.485 66.5912ZM3 1H89V-1H3V1ZM1 60.26V3H-1V60.26H1ZM39.6692 62.26H3V64.26H39.6692V62.26ZM44.3432 66.031L42.9827 64.0191L41.3259 65.1396L42.6865 67.1514L44.3432 66.031ZM49.0172 64.0192L47.6566 66.031L49.3133 67.1514L50.6739 65.1396L49.0172 64.0192ZM89 62.26H52.3306V64.26H89V62.26ZM91 3V60.26H93V3H91ZM89 64.26C91.2091 64.26 93 62.4691 93 60.26H91C91 61.3645 90.1046 62.26 89 62.26V64.26ZM50.6739 65.1396C51.0459 64.5895 51.6666 64.26 52.3306 64.26V62.26C51.0026 62.26 49.7612 62.9191 49.0172 64.0192L50.6739 65.1396ZM42.6865 67.1514C44.2728 69.497 47.7271 69.497 49.3133 67.1514L47.6566 66.031C46.8635 67.2038 45.1364 67.2038 44.3432 66.031L42.6865 67.1514ZM39.6692 64.26C40.3332 64.26 40.954 64.5895 41.3259 65.1396L42.9827 64.0191C42.2387 62.9191 40.9973 62.26 39.6692 62.26V64.26ZM-1 60.26C-1 62.4691 0.790865 64.26 3 64.26V62.26C1.89543 62.26 1 61.3645 1 60.26H-1ZM89 1C90.1046 1 91 1.89543 91 3H93C93 0.790861 91.2091 -1 89 -1V1ZM3 -1C0.790863 -1 -1 0.790856 -1 3H1C1 1.89543 1.89543 1 3 1V-1Z" fill="#D8E0F7" mask="url(#path-1-inside-1)"/>
</svg>
